<svg aria-hidden="true" style="position: absolute; width: 0; height: 0; overflow: hidden;" version="1.1" xmlns="http://www.w3.org/2000/svg" xmlns:xlink="http://www.w3.org/1999/xlink">
<defs>

<symbol id="icon-Vector-2" viewBox="0 0 42 32">
<path d="M2.667 1.066c-0.566 0-1.108 0.225-1.508 0.625s-0.625 0.943-0.625 1.508c0 0.566 0.225 1.108 0.625 1.508s0.943 0.625 1.508 0.625h36.267c0.566 0 1.108-0.225 1.508-0.625s0.625-0.943 0.625-1.508-0.225-1.108-0.625-1.508c-0.4-0.4-0.943-0.625-1.508-0.625h-36.267zM0.534 16c0-0.566 0.225-1.108 0.625-1.508s0.943-0.625 1.508-0.625h36.267c0.566 0 1.108 0.225 1.508 0.625s0.625 0.943 0.625 1.508c0 0.566-0.225 1.108-0.625 1.508s-0.943 0.625-1.508 0.625h-36.267c-0.566 0-1.108-0.225-1.508-0.625s-0.625-0.943-0.625-1.508zM0.534 28.802c0-0.566 0.225-1.108 0.625-1.508s0.943-0.625 1.508-0.625h36.267c0.566 0 1.108 0.225 1.508 0.625s0.625 0.943 0.625 1.508c0 0.566-0.225 1.108-0.625 1.508s-0.943 0.625-1.508 0.625h-36.267c-0.566 0-1.108-0.225-1.508-0.625s-0.625-0.943-0.625-1.508z"></path>
</symbol>

<symbol id="icon-Vector-1" viewBox="0 0 43 32">
<path d="M33.096 12.88c-0.565-0.14-1.153-0.212-1.763-0.213h-0.667c-0.541 0-1.080 0.059-1.608 0.176l-0.144 0.035c0.411-1.431 0.907-2.836 1.485-4.208 0.358-0.856 0.74-1.702 1.147-2.536 0.191-0.387 0.386-0.772 0.587-1.155 0.229-0.44-0.091-0.979-0.587-0.979-0.139 0.001-0.274 0.047-0.384 0.131l-0.261 0.203c-2.513 1.971-4.495 4.539-5.765 7.469-0.709 1.636-1.209 3.354-1.491 5.115-0.107 0.672-0.187 1.356-0.24 2.053-0.048 0.336-0.072 0.679-0.072 1.029v0.907h0.005v0.008c0.062 1.901 0.862 3.704 2.23 5.026s3.196 2.061 5.098 2.059h0.667c1.945 0 3.81-0.773 5.185-2.148s2.148-3.241 2.148-5.185v-0.667c0-1.639-0.548-3.23-1.558-4.521s-2.422-2.206-4.013-2.599zM34.56 9.133c2.342 0.696 4.397 2.129 5.857 4.088s2.25 4.336 2.249 6.779v0.667c0 3.006-1.194 5.888-3.319 8.014s-5.008 3.319-8.014 3.319h-0.667c-1.836 0-3.645-0.446-5.271-1.299s-3.020-2.090-4.062-3.602c-1.042 1.512-2.436 2.748-4.062 3.602s-3.435 1.3-5.271 1.299h-0.667c-2.966 0.001-5.815-1.162-7.934-3.238s-3.339-4.9-3.399-7.866v-0.896c0-0.489 0.031-0.972 0.093-1.448 0.552-6.987 3.621-13.243 9.301-17.597 0.809-0.619 1.8-0.955 2.819-0.955 3.576 0 5.723 3.8 4.128 6.837-0.296 0.563-0.693 1.355-1.115 2.293 2.101 0.624 3.949 1.84 5.347 3.459 1.444-4.631 4.294-8.697 8.155-11.635 0.809-0.619 1.8-0.955 2.819-0.955 3.576 0 5.723 3.8 4.128 6.837-0.296 0.563-0.693 1.355-1.115 2.293zM13.76 12.88c-0.577-0.141-1.169-0.213-1.763-0.213h-0.667c-0.59 0.001-1.178 0.071-1.752 0.211 0.486-1.699 1.092-3.361 1.813-4.973 0.436-0.991 0.906-1.966 1.408-2.925 0.054-0.101 0.080-0.215 0.077-0.33s-0.036-0.227-0.095-0.325c-0.059-0.098-0.142-0.18-0.242-0.237s-0.212-0.087-0.327-0.087c-0.139 0.001-0.274 0.047-0.384 0.131-0.884 0.684-1.714 1.437-2.48 2.251-1.574 1.692-2.83 3.654-3.707 5.792-0.624 1.525-1.070 3.117-1.328 4.744-0.11 0.672-0.191 1.356-0.243 2.053-0.046 0.341-0.070 0.685-0.072 1.029v0.904h0.003v0.011c0.062 1.902 0.862 3.705 2.231 5.027s3.197 2.061 5.1 2.058h0.669c1.945 0 3.81-0.773 5.185-2.148s2.148-3.241 2.148-5.185v-0.667c0-3.44-2.373-6.331-5.571-7.12z"></path>
</symbol>

<symbol id="icon-Vector" viewBox="0 0 32 32">
<path d="M29 2.214v0zM3 2.214v0z"></path>
<path stroke-linejoin="round" stroke-linecap="round" stroke-miterlimit="4" stroke-width="4" d="M29 2.214l-26 26M3 2.214l26 26"></path>
</symbol>
</defs>
</svg>
